<svg width="987" height="73" viewBox="0 0 987 73" fill="none" xmlns="http://www.w3.org/2000/svg">
<path d="M18.4881 70L3.12813 17.296L0.248125 7.792V2.032H18.4881L30.4881 51.568H32.4081L41.5281 2.032H66.7761L74.2641 39.376L75.8001 51.568H77.7201L89.6241 2.032H107.672V7.792L104.792 17.296L89.6241 70H64.7601L54.8721 19.888H52.8561L51.2241 31.504L43.3521 70H18.4881ZM131.731 70.96C126.803 70.96 122.419 70.224 118.579 68.752C114.739 67.28 111.731 64.816 109.555 61.36C107.379 57.904 106.291 53.232 106.291 47.344C106.291 43.12 106.995 39.504 108.403 36.496C109.875 33.488 111.827 31.056 114.259 29.2C116.691 27.28 119.411 25.904 122.419 25.072C125.427 24.176 128.531 23.728 131.731 23.728C137.235 23.728 141.459 24.272 144.403 25.36C147.411 26.448 149.395 27.312 150.355 27.952L155.155 43.216L153.235 49.168H123.475C123.923 51.536 125.107 53.52 127.027 55.12C128.947 56.72 132.115 57.52 136.531 57.52C139.987 57.52 142.963 57.136 145.459 56.368C147.955 55.6 149.907 54.928 151.315 54.352V67.216C149.395 68.24 146.611 69.136 142.963 69.904C139.379 70.608 135.635 70.96 131.731 70.96ZM123.571 43.024L136.819 41.104L135.955 36.976C135.507 36.72 134.835 36.528 133.939 36.4C133.107 36.272 132.371 36.208 131.731 36.208C129.939 36.208 128.435 36.592 127.219 37.36C126.067 38.128 125.171 39.056 124.531 40.144C123.955 41.168 123.635 42.128 123.571 43.024ZM163.278 70L163.182 17.392L161.262 7.792L163.278 2.032H180.558V70H163.278ZM212.217 70.96C207.801 70.96 203.801 70.224 200.217 68.752C196.697 67.28 193.881 64.816 191.769 61.36C189.721 57.904 188.697 53.232 188.697 47.344C188.697 41.392 189.817 36.72 192.057 33.328C194.297 29.872 197.209 27.408 200.793 25.936C204.377 24.464 208.185 23.728 212.217 23.728C215.737 23.728 218.745 23.856 221.241 24.112C223.801 24.368 225.497 24.592 226.329 24.784L233.817 33.232L226.137 43.696L215.097 37.168C209.593 37.168 206.841 40.56 206.841 47.344C206.841 50.864 207.673 53.456 209.337 55.12C211.001 56.72 213.561 57.52 217.017 57.52C220.473 57.52 223.577 57.04 226.329 56.08C229.081 55.12 231.225 54.224 232.761 53.392V67.216C230.777 68.24 228.153 69.136 224.889 69.904C221.689 70.608 217.465 70.96 212.217 70.96ZM264.648 70.96C256.84 70.96 250.792 69.104 246.504 65.392C242.216 61.68 240.072 55.664 240.072 47.344C240.072 38.96 242.216 32.944 246.504 29.296C250.792 25.584 256.84 23.728 264.648 23.728C272.648 23.728 278.696 25.584 282.792 29.296C286.952 32.944 289.032 38.96 289.032 47.344C289.032 55.664 286.952 61.68 282.792 65.392C278.696 69.104 272.648 70.96 264.648 70.96ZM264.648 58.48C267.272 58.48 269.096 57.52 270.12 55.6C271.144 53.616 271.656 50.864 271.656 47.344C271.656 43.76 271.144 41.008 270.12 39.088C269.096 37.168 267.272 36.208 264.648 36.208C261.96 36.208 260.072 37.168 258.984 39.088C257.96 41.008 257.448 43.76 257.448 47.344C257.448 50.864 257.96 53.616 258.984 55.6C260.072 57.52 261.96 58.48 264.648 58.48ZM295.231 30.544L298.207 24.688H312.511V28.816L313.375 29.392C314.079 28.752 315.039 28.016 316.255 27.184C317.535 26.288 319.071 25.488 320.863 24.784C322.655 24.08 324.671 23.728 326.911 23.728C333.567 23.728 338.335 25.936 341.215 30.352C342.367 28.752 344.095 27.248 346.399 25.84C348.767 24.368 352.031 23.632 356.191 23.632C361.951 23.632 366.271 25.264 369.151 28.528C372.031 31.792 373.471 36.368 373.471 42.256V54.544L375.487 64.144L373.471 70H356.191V44.752C356.191 42.32 355.647 40.464 354.559 39.184C353.535 37.84 351.903 37.168 349.663 37.168C348.191 37.168 346.911 37.712 345.823 38.8C344.735 39.888 344.191 41.264 344.191 42.928V70H326.911V44.848C326.911 42.416 326.367 40.56 325.279 39.28C324.255 37.936 322.623 37.264 320.383 37.264L314.431 39.088V70H297.151V41.104L295.231 30.544ZM407.168 70.96C402.24 70.96 397.856 70.224 394.016 68.752C390.176 67.28 387.168 64.816 384.992 61.36C382.816 57.904 381.728 53.232 381.728 47.344C381.728 43.12 382.432 39.504 383.84 36.496C385.312 33.488 387.264 31.056 389.696 29.2C392.128 27.28 394.848 25.904 397.856 25.072C400.864 24.176 403.968 23.728 407.168 23.728C412.672 23.728 416.896 24.272 419.84 25.36C422.848 26.448 424.832 27.312 425.792 27.952L430.592 43.216L428.672 49.168H398.912C399.36 51.536 400.544 53.52 402.464 55.12C404.384 56.72 407.552 57.52 411.968 57.52C415.424 57.52 418.4 57.136 420.896 56.368C423.392 55.6 425.344 54.928 426.752 54.352V67.216C424.832 68.24 422.048 69.136 418.4 69.904C414.816 70.608 411.072 70.96 407.168 70.96ZM399.008 43.024L412.256 41.104L411.392 36.976C410.944 36.72 410.272 36.528 409.376 36.4C408.544 36.272 407.808 36.208 407.168 36.208C405.376 36.208 403.872 36.592 402.656 37.36C401.504 38.128 400.608 39.056 399.968 40.144C399.392 41.168 399.072 42.128 399.008 43.024ZM463.602 70V17.488L461.682 7.792L463.602 2.032H494.322C498.994 2.032 503.186 2.768 506.898 4.23999C510.674 5.64799 513.65 8.08 515.826 11.536C518.066 14.928 519.186 19.632 519.186 25.648C519.186 31.088 518.194 35.504 516.21 38.896C514.226 42.224 511.474 44.72 507.954 46.384L508.914 47.44L518.418 59.344L523.89 64.24V70H502.29L488.85 49.552H480.882V54.544L481.842 64.144L480.882 70H463.602ZM480.882 34.48H490.29C493.618 34.48 496.274 33.872 498.258 32.656C500.242 31.376 501.234 29.04 501.234 25.648C501.234 23.28 500.754 21.52 499.794 20.368C498.834 19.152 497.49 18.352 495.762 17.968C494.098 17.584 492.146 17.392 489.906 17.392H479.922L480.882 34.48ZM549.929 70.96C542.121 70.96 536.073 69.104 531.785 65.392C527.497 61.68 525.353 55.664 525.353 47.344C525.353 38.96 527.497 32.944 531.785 29.296C536.073 25.584 542.121 23.728 549.929 23.728C557.929 23.728 563.977 25.584 568.073 29.296C572.233 32.944 574.313 38.96 574.313 47.344C574.313 55.664 572.233 61.68 568.073 65.392C563.977 69.104 557.929 70.96 549.929 70.96ZM549.929 58.48C552.553 58.48 554.377 57.52 555.401 55.6C556.425 53.616 556.937 50.864 556.937 47.344C556.937 43.76 556.425 41.008 555.401 39.088C554.377 37.168 552.553 36.208 549.929 36.208C547.241 36.208 545.353 37.168 544.265 39.088C543.241 41.008 542.729 43.76 542.729 47.344C542.729 50.864 543.241 53.616 544.265 55.6C545.353 57.52 547.241 58.48 549.929 58.48ZM602.592 70.96C598.176 70.96 594.176 70.224 590.592 68.752C587.072 67.28 584.256 64.816 582.144 61.36C580.096 57.904 579.072 53.232 579.072 47.344C579.072 41.392 580.192 36.72 582.432 33.328C584.672 29.872 587.584 27.408 591.168 25.936C594.752 24.464 598.56 23.728 602.592 23.728C606.112 23.728 609.12 23.856 611.616 24.112C614.176 24.368 615.872 24.592 616.704 24.784L624.192 33.232L616.512 43.696L605.472 37.168C599.968 37.168 597.216 40.56 597.216 47.344C597.216 50.864 598.048 53.456 599.712 55.12C601.376 56.72 603.936 57.52 607.392 57.52C610.848 57.52 613.952 57.04 616.704 56.08C619.456 55.12 621.6 54.224 623.136 53.392V67.216C621.152 68.24 618.528 69.136 615.264 69.904C612.064 70.608 607.84 70.96 602.592 70.96ZM633.903 70V17.392L631.887 7.792L633.903 2.032H651.183V17.392L650.127 42.256H653.967L661.359 24.688H680.943V30.448L670.287 46L677.391 54.64L686.415 64.336V70H667.791L656.943 54.16L651.183 55.12V70H633.903ZM715.231 70.96C710.303 70.96 705.919 70.224 702.079 68.752C698.239 67.28 695.231 64.816 693.055 61.36C690.879 57.904 689.791 53.232 689.791 47.344C689.791 43.12 690.495 39.504 691.903 36.496C693.375 33.488 695.327 31.056 697.759 29.2C700.191 27.28 702.911 25.904 705.919 25.072C708.927 24.176 712.031 23.728 715.231 23.728C720.735 23.728 724.959 24.272 727.903 25.36C730.911 26.448 732.895 27.312 733.855 27.952L738.655 43.216L736.735 49.168H706.975C707.423 51.536 708.607 53.52 710.527 55.12C712.447 56.72 715.615 57.52 720.031 57.52C723.487 57.52 726.463 57.136 728.959 56.368C731.455 55.6 733.407 54.928 734.815 54.352V67.216C732.895 68.24 730.111 69.136 726.463 69.904C722.879 70.608 719.135 70.96 715.231 70.96ZM707.071 43.024L720.319 41.104L719.455 36.976C719.007 36.72 718.335 36.528 717.439 36.4C716.607 36.272 715.871 36.208 715.231 36.208C713.439 36.208 711.935 36.592 710.719 37.36C709.567 38.128 708.671 39.056 708.031 40.144C707.455 41.168 707.135 42.128 707.071 43.024ZM763.29 70.96C758.938 70.96 755.45 69.68 752.826 67.12C750.202 64.56 748.89 61.328 748.89 57.424V36.496H741.882V27.376L747.93 22.672L754.746 10.768H766.074V24.688H779.514V37.168H766.074V57.712L779.514 57.616V68.08C779.514 68.08 778.746 68.336 777.21 68.848C775.738 69.296 773.786 69.744 771.354 70.192C768.922 70.704 766.234 70.96 763.29 70.96ZM810.199 70.96C805.271 70.96 800.887 70.224 797.047 68.752C793.207 67.28 790.199 64.816 788.023 61.36C785.847 57.904 784.759 53.232 784.759 47.344C784.759 43.12 785.463 39.504 786.871 36.496C788.343 33.488 790.295 31.056 792.727 29.2C795.159 27.28 797.879 25.904 800.887 25.072C803.895 24.176 806.999 23.728 810.199 23.728C815.703 23.728 819.927 24.272 822.871 25.36C825.879 26.448 827.863 27.312 828.823 27.952L833.623 43.216L831.703 49.168H801.943C802.391 51.536 803.575 53.52 805.495 55.12C807.415 56.72 810.583 57.52 814.999 57.52C818.455 57.52 821.431 57.136 823.927 56.368C826.423 55.6 828.375 54.928 829.783 54.352V67.216C827.863 68.24 825.079 69.136 821.431 69.904C817.847 70.608 814.103 70.96 810.199 70.96ZM802.039 43.024L815.287 41.104L814.423 36.976C813.975 36.72 813.303 36.528 812.407 36.4C811.575 36.272 810.839 36.208 810.199 36.208C808.407 36.208 806.903 36.592 805.687 37.36C804.535 38.128 803.639 39.056 802.999 40.144C802.423 41.168 802.103 42.128 802.039 43.024ZM863.731 70.96C858.803 70.96 854.419 70.224 850.579 68.752C846.739 67.28 843.731 64.816 841.555 61.36C839.379 57.904 838.291 53.232 838.291 47.344C838.291 43.12 838.995 39.504 840.403 36.496C841.875 33.488 843.827 31.056 846.259 29.2C848.691 27.28 851.411 25.904 854.419 25.072C857.427 24.176 860.531 23.728 863.731 23.728C869.235 23.728 873.459 24.272 876.403 25.36C879.411 26.448 881.395 27.312 882.355 27.952L887.155 43.216L885.235 49.168H855.475C855.923 51.536 857.107 53.52 859.027 55.12C860.947 56.72 864.115 57.52 868.531 57.52C871.987 57.52 874.963 57.136 877.459 56.368C879.955 55.6 881.907 54.928 883.315 54.352V67.216C881.395 68.24 878.611 69.136 874.963 69.904C871.379 70.608 867.635 70.96 863.731 70.96ZM855.571 43.024L868.819 41.104L867.955 36.976C867.507 36.72 866.835 36.528 865.939 36.4C865.107 36.272 864.371 36.208 863.731 36.208C861.939 36.208 860.435 36.592 859.219 37.36C858.067 38.128 857.171 39.056 856.531 40.144C855.955 41.168 855.635 42.128 855.571 43.024ZM895.278 70V39.952L893.262 30.352L895.278 24.592H908.334L910.254 26.8C910.254 26.8 910.702 26.544 911.598 26.032C912.494 25.456 913.742 24.912 915.342 24.4C917.006 23.888 918.926 23.632 921.102 23.632C922.382 23.632 923.662 23.728 924.942 23.92C926.222 24.112 927.214 24.368 927.918 24.688L934.158 29.968L927.918 42.256L915.246 36.976L912.366 37.936V70H895.278ZM973.331 44.944L965.843 8.65599L975.443 0.975996L984.947 8.752L977.171 44.944H973.331ZM975.443 72.784L964.883 62.224L975.443 51.664L986.003 62.224L975.443 72.784Z" fill="#FE3B1F"/>
</svg>
