<svg width="235" height="22" viewBox="0 0 235 22" fill="none" xmlns="http://www.w3.org/2000/svg">
<path d="M7.20003 18.144C5.95203 18.144 4.75203 17.944 3.60003 17.544C2.46403 17.144 1.58403 16.616 0.960031 15.96L1.65603 14.592C2.26403 15.2 3.07203 15.696 4.08003 16.08C5.08803 16.448 6.12803 16.632 7.20003 16.632C8.70403 16.632 9.83203 16.36 10.584 15.816C11.336 15.256 11.712 14.536 11.712 13.656C11.712 12.984 11.504 12.448 11.088 12.048C10.688 11.648 10.192 11.344 9.60003 11.136C9.00803 10.912 8.18403 10.672 7.12803 10.416C5.86403 10.096 4.85603 9.792 4.10403 9.504C3.35203 9.2 2.70403 8.744 2.16003 8.136C1.63203 7.528 1.36803 6.704 1.36803 5.664C1.36803 4.816 1.59203 4.048 2.04003 3.36C2.48803 2.656 3.17603 2.096 4.10403 1.68C5.03203 1.264 6.18403 1.056 7.56003 1.056C8.52003 1.056 9.45603 1.192 10.368 1.464C11.296 1.72 12.096 2.08 12.768 2.544L12.168 3.96C11.464 3.496 10.712 3.152 9.91203 2.928C9.11203 2.688 8.32803 2.568 7.56003 2.568C6.08803 2.568 4.97603 2.856 4.22403 3.432C3.48803 3.992 3.12003 4.72 3.12003 5.616C3.12003 6.288 3.32003 6.832 3.72003 7.248C4.13603 7.648 4.64803 7.96 5.25603 8.184C5.88003 8.392 6.71203 8.624 7.75203 8.88C8.98403 9.184 9.97603 9.488 10.728 9.792C11.496 10.08 12.144 10.528 12.672 11.136C13.2 11.728 13.464 12.536 13.464 13.56C13.464 14.408 13.232 15.184 12.768 15.888C12.32 16.576 11.624 17.128 10.68 17.544C9.73603 17.944 8.57603 18.144 7.20003 18.144ZM23.6217 17.232C23.3017 17.52 22.9017 17.744 22.4217 17.904C21.9577 18.048 21.4697 18.12 20.9577 18.12C19.7737 18.12 18.8617 17.8 18.2217 17.16C17.5817 16.52 17.2617 15.616 17.2617 14.448V6.816H15.0057V5.376H17.2617V2.616H18.9657V5.376H22.8057V6.816H18.9657V14.352C18.9657 15.104 19.1497 15.68 19.5177 16.08C19.9017 16.464 20.4457 16.656 21.1497 16.656C21.5017 16.656 21.8377 16.6 22.1577 16.488C22.4937 16.376 22.7817 16.216 23.0217 16.008L23.6217 17.232ZM31.1397 5.28C32.7877 5.28 34.0517 5.696 34.9317 6.528C35.8117 7.344 36.2517 8.56 36.2517 10.176V18H34.6197V16.032C34.2357 16.688 33.6677 17.2 32.9157 17.568C32.1797 17.936 31.2997 18.12 30.2757 18.12C28.8677 18.12 27.7477 17.784 26.9157 17.112C26.0837 16.44 25.6677 15.552 25.6677 14.448C25.6677 13.376 26.0517 12.512 26.8197 11.856C27.6037 11.2 28.8437 10.872 30.5397 10.872H34.5477V10.104C34.5477 9.016 34.2437 8.192 33.6357 7.632C33.0277 7.056 32.1397 6.768 30.9717 6.768C30.1717 6.768 29.4037 6.904 28.6677 7.176C27.9317 7.432 27.2997 7.792 26.7717 8.256L26.0037 6.984C26.6437 6.44 27.4117 6.024 28.3077 5.736C29.2037 5.432 30.1477 5.28 31.1397 5.28ZM30.5397 16.776C31.4997 16.776 32.3237 16.56 33.0117 16.128C33.6997 15.68 34.2117 15.04 34.5477 14.208V12.144H30.5877C28.4277 12.144 27.3477 12.896 27.3477 14.4C27.3477 15.136 27.6277 15.72 28.1877 16.152C28.7477 16.568 29.5317 16.776 30.5397 16.776ZM42.5119 7.848C42.9119 7 43.5039 6.36 44.2879 5.928C45.0879 5.496 46.0719 5.28 47.2399 5.28V6.936L46.8319 6.912C45.5039 6.912 44.4639 7.32 43.7119 8.136C42.9599 8.952 42.5839 10.096 42.5839 11.568V18H40.8799V5.376H42.5119V7.848ZM57.5123 17.232C57.1923 17.52 56.7923 17.744 56.3123 17.904C55.8483 18.048 55.3603 18.12 54.8483 18.12C53.6643 18.12 52.7523 17.8 52.1123 17.16C51.4723 16.52 51.1523 15.616 51.1523 14.448V6.816H48.8963V5.376H51.1523V2.616H52.8563V5.376H56.6963V6.816H52.8563V14.352C52.8563 15.104 53.0403 15.68 53.4083 16.08C53.7923 16.464 54.3363 16.656 55.0403 16.656C55.3923 16.656 55.7283 16.6 56.0483 16.488C56.3843 16.376 56.6723 16.216 56.9123 16.008L57.5123 17.232ZM84.1755 19.416C83.6635 20.04 83.0555 20.512 82.3515 20.832C81.6635 21.168 80.9115 21.336 80.0955 21.336C79.1035 21.336 78.1595 21.088 77.2635 20.592C76.3835 20.112 75.3915 19.296 74.2875 18.144C72.6715 18.096 71.2155 17.696 69.9195 16.944C68.6235 16.192 67.6075 15.176 66.8715 13.896C66.1355 12.616 65.7675 11.184 65.7675 9.6C65.7675 7.984 66.1435 6.528 66.8955 5.232C67.6635 3.936 68.7195 2.92 70.0635 2.184C71.4235 1.432 72.9355 1.056 74.5995 1.056C76.2635 1.056 77.7595 1.424 79.0875 2.16C80.4315 2.896 81.4875 3.92 82.2555 5.232C83.0235 6.528 83.4075 7.984 83.4075 9.6C83.4075 11.008 83.1115 12.304 82.5195 13.488C81.9435 14.656 81.1275 15.632 80.0715 16.416C79.0315 17.2 77.8315 17.72 76.4715 17.976C77.7035 19.272 78.9195 19.92 80.1195 19.92C81.3675 19.92 82.4315 19.408 83.3115 18.384L84.1755 19.416ZM67.5195 9.6C67.5195 10.912 67.8235 12.096 68.4315 13.152C69.0555 14.208 69.9035 15.04 70.9755 15.648C72.0635 16.256 73.2715 16.56 74.5995 16.56C75.9275 16.56 77.1275 16.256 78.1995 15.648C79.2715 15.04 80.1115 14.208 80.7195 13.152C81.3275 12.096 81.6315 10.912 81.6315 9.6C81.6315 8.288 81.3275 7.104 80.7195 6.048C80.1115 4.992 79.2715 4.16 78.1995 3.552C77.1275 2.944 75.9275 2.64 74.5995 2.64C73.2715 2.64 72.0635 2.944 70.9755 3.552C69.9035 4.16 69.0555 4.992 68.4315 6.048C67.8235 7.104 67.5195 8.288 67.5195 9.6ZM98.4043 5.376V18H96.7723V15.696C96.3243 16.464 95.7083 17.064 94.9243 17.496C94.1403 17.912 93.2443 18.12 92.2363 18.12C90.5883 18.12 89.2843 17.664 88.3243 16.752C87.3803 15.824 86.9083 14.472 86.9083 12.696V5.376H88.6123V12.528C88.6123 13.856 88.9403 14.864 89.5963 15.552C90.2523 16.24 91.1883 16.584 92.4043 16.584C93.7323 16.584 94.7803 16.184 95.5483 15.384C96.3163 14.568 96.7003 13.44 96.7003 12V5.376H98.4043ZM114.169 12.216H103.609C103.705 13.528 104.209 14.592 105.121 15.408C106.033 16.208 107.185 16.608 108.577 16.608C109.361 16.608 110.081 16.472 110.737 16.2C111.393 15.912 111.961 15.496 112.441 14.952L113.401 16.056C112.841 16.728 112.137 17.24 111.289 17.592C110.457 17.944 109.537 18.12 108.529 18.12C107.233 18.12 106.081 17.848 105.073 17.304C104.081 16.744 103.305 15.976 102.745 15C102.185 14.024 101.905 12.92 101.905 11.688C101.905 10.456 102.169 9.352 102.697 8.376C103.241 7.4 103.977 6.64 104.905 6.096C105.849 5.552 106.905 5.28 108.073 5.28C109.241 5.28 110.289 5.552 111.217 6.096C112.145 6.64 112.873 7.4 113.401 8.376C113.929 9.336 114.193 10.44 114.193 11.688L114.169 12.216ZM108.073 6.744C106.857 6.744 105.833 7.136 105.001 7.92C104.185 8.688 103.721 9.696 103.609 10.944H112.561C112.449 9.696 111.977 8.688 111.145 7.92C110.329 7.136 109.305 6.744 108.073 6.744ZM121.045 18.12C120.021 18.12 119.037 17.976 118.093 17.688C117.165 17.384 116.437 17.008 115.909 16.56L116.677 15.216C117.205 15.632 117.869 15.976 118.669 16.248C119.469 16.504 120.301 16.632 121.165 16.632C122.317 16.632 123.165 16.456 123.709 16.104C124.269 15.736 124.549 15.224 124.549 14.568C124.549 14.104 124.397 13.744 124.093 13.488C123.789 13.216 123.405 13.016 122.941 12.888C122.477 12.744 121.861 12.608 121.093 12.48C120.069 12.288 119.245 12.096 118.621 11.904C117.997 11.696 117.461 11.352 117.013 10.872C116.581 10.392 116.365 9.728 116.365 8.88C116.365 7.824 116.805 6.96 117.685 6.288C118.565 5.616 119.789 5.28 121.357 5.28C122.173 5.28 122.989 5.392 123.805 5.616C124.621 5.824 125.293 6.104 125.821 6.456L125.077 7.824C124.037 7.104 122.797 6.744 121.357 6.744C120.269 6.744 119.445 6.936 118.885 7.32C118.341 7.704 118.069 8.208 118.069 8.832C118.069 9.312 118.221 9.696 118.525 9.984C118.845 10.272 119.237 10.488 119.701 10.632C120.165 10.76 120.805 10.896 121.621 11.04C122.629 11.232 123.437 11.424 124.045 11.616C124.653 11.808 125.173 12.136 125.605 12.6C126.037 13.064 126.253 13.704 126.253 14.52C126.253 15.624 125.789 16.504 124.861 17.16C123.949 17.8 122.677 18.12 121.045 18.12ZM136.051 17.232C135.731 17.52 135.331 17.744 134.851 17.904C134.387 18.048 133.899 18.12 133.387 18.12C132.203 18.12 131.291 17.8 130.651 17.16C130.011 16.52 129.691 15.616 129.691 14.448V6.816H127.435V5.376H129.691V2.616H131.395V5.376H135.235V6.816H131.395V14.352C131.395 15.104 131.579 15.68 131.947 16.08C132.331 16.464 132.875 16.656 133.579 16.656C133.931 16.656 134.267 16.6 134.587 16.488C134.923 16.376 135.211 16.216 135.451 16.008L136.051 17.232ZM139.153 5.376H140.857V18H139.153V5.376ZM140.017 2.616C139.665 2.616 139.369 2.496 139.129 2.256C138.889 2.016 138.769 1.728 138.769 1.392C138.769 1.072 138.889 0.791999 139.129 0.551999C139.369 0.311999 139.665 0.191999 140.017 0.191999C140.369 0.191999 140.665 0.311999 140.905 0.551999C141.145 0.775999 141.265 1.048 141.265 1.368C141.265 1.72 141.145 2.016 140.905 2.256C140.665 2.496 140.369 2.616 140.017 2.616ZM150.759 18.12C149.543 18.12 148.447 17.848 147.471 17.304C146.495 16.744 145.727 15.976 145.167 15C144.607 14.024 144.327 12.92 144.327 11.688C144.327 10.456 144.607 9.352 145.167 8.376C145.727 7.4 146.495 6.64 147.471 6.096C148.447 5.552 149.543 5.28 150.759 5.28C151.975 5.28 153.071 5.552 154.047 6.096C155.023 6.64 155.783 7.4 156.327 8.376C156.887 9.352 157.167 10.456 157.167 11.688C157.167 12.92 156.887 14.024 156.327 15C155.783 15.976 155.023 16.744 154.047 17.304C153.071 17.848 151.975 18.12 150.759 18.12ZM150.759 16.608C151.655 16.608 152.455 16.408 153.159 16.008C153.879 15.592 154.439 15.008 154.839 14.256C155.239 13.504 155.439 12.648 155.439 11.688C155.439 10.728 155.239 9.872 154.839 9.12C154.439 8.368 153.879 7.792 153.159 7.392C152.455 6.976 151.655 6.768 150.759 6.768C149.863 6.768 149.055 6.976 148.335 7.392C147.631 7.792 147.071 8.368 146.655 9.12C146.255 9.872 146.055 10.728 146.055 11.688C146.055 12.648 146.255 13.504 146.655 14.256C147.071 15.008 147.631 15.592 148.335 16.008C149.055 16.408 149.863 16.608 150.759 16.608ZM167.078 5.28C168.662 5.28 169.918 5.744 170.846 6.672C171.79 7.584 172.262 8.92 172.262 10.68V18H170.558V10.848C170.558 9.536 170.23 8.536 169.574 7.848C168.918 7.16 167.982 6.816 166.766 6.816C165.406 6.816 164.326 7.224 163.526 8.04C162.742 8.84 162.35 9.952 162.35 11.376V18H160.646V5.376H162.278V7.704C162.742 6.936 163.382 6.344 164.198 5.928C165.03 5.496 165.99 5.28 167.078 5.28ZM183.32 5.28C184.904 5.28 186.16 5.744 187.088 6.672C188.032 7.584 188.504 8.92 188.504 10.68V18H186.8V10.848C186.8 9.536 186.472 8.536 185.816 7.848C185.16 7.16 184.224 6.816 183.008 6.816C181.648 6.816 180.568 7.224 179.768 8.04C178.984 8.84 178.592 9.952 178.592 11.376V18H176.888V5.376H178.52V7.704C178.984 6.936 179.624 6.344 180.44 5.928C181.272 5.496 182.232 5.28 183.32 5.28ZM197.546 5.28C199.194 5.28 200.458 5.696 201.338 6.528C202.218 7.344 202.658 8.56 202.658 10.176V18H201.026V16.032C200.642 16.688 200.074 17.2 199.322 17.568C198.586 17.936 197.706 18.12 196.682 18.12C195.274 18.12 194.154 17.784 193.322 17.112C192.49 16.44 192.074 15.552 192.074 14.448C192.074 13.376 192.458 12.512 193.226 11.856C194.01 11.2 195.25 10.872 196.946 10.872H200.954V10.104C200.954 9.016 200.65 8.192 200.042 7.632C199.434 7.056 198.546 6.768 197.378 6.768C196.578 6.768 195.81 6.904 195.074 7.176C194.338 7.432 193.706 7.792 193.178 8.256L192.41 6.984C193.05 6.44 193.818 6.024 194.714 5.736C195.61 5.432 196.554 5.28 197.546 5.28ZM196.946 16.776C197.906 16.776 198.73 16.56 199.418 16.128C200.106 15.68 200.618 15.04 200.954 14.208V12.144H196.994C194.834 12.144 193.754 12.896 193.754 14.4C193.754 15.136 194.034 15.72 194.594 16.152C195.154 16.568 195.938 16.776 196.946 16.776ZM207.286 5.376H208.99V18H207.286V5.376ZM208.15 2.616C207.798 2.616 207.502 2.496 207.262 2.256C207.022 2.016 206.902 1.728 206.902 1.392C206.902 1.072 207.022 0.791999 207.262 0.551999C207.502 0.311999 207.798 0.191999 208.15 0.191999C208.502 0.191999 208.798 0.311999 209.038 0.551999C209.278 0.775999 209.398 1.048 209.398 1.368C209.398 1.72 209.278 2.016 209.038 2.256C208.798 2.496 208.502 2.616 208.15 2.616ZM215.363 7.848C215.763 7 216.355 6.36 217.139 5.928C217.939 5.496 218.923 5.28 220.091 5.28V6.936L219.683 6.912C218.355 6.912 217.315 7.32 216.563 8.136C215.811 8.952 215.435 10.096 215.435 11.568V18H213.731V5.376H215.363V7.848ZM234.052 12.216H223.492C223.588 13.528 224.092 14.592 225.004 15.408C225.916 16.208 227.068 16.608 228.46 16.608C229.244 16.608 229.964 16.472 230.62 16.2C231.276 15.912 231.844 15.496 232.324 14.952L233.284 16.056C232.724 16.728 232.02 17.24 231.172 17.592C230.34 17.944 229.42 18.12 228.412 18.12C227.116 18.12 225.964 17.848 224.956 17.304C223.964 16.744 223.188 15.976 222.628 15C222.068 14.024 221.788 12.92 221.788 11.688C221.788 10.456 222.052 9.352 222.58 8.376C223.124 7.4 223.86 6.64 224.788 6.096C225.732 5.552 226.788 5.28 227.956 5.28C229.124 5.28 230.172 5.552 231.1 6.096C232.028 6.64 232.756 7.4 233.284 8.376C233.812 9.336 234.076 10.44 234.076 11.688L234.052 12.216ZM227.956 6.744C226.74 6.744 225.716 7.136 224.884 7.92C224.068 8.688 223.604 9.696 223.492 10.944H232.444C232.332 9.696 231.86 8.688 231.028 7.92C230.212 7.136 229.188 6.744 227.956 6.744Z" fill="white"/>
</svg>